# xmcd
#
# Track frame offsets: 
#        150
#        14290
#        31867
#        50055
#        65625
#        81377
#        98102
#        112332
#        130835
#        148417
#        168810
#        182670
#        195662
#
# Disc length: 2805 seconds
#
# Revision: 1
# Processed by: cddbd v1.5.2PL0 Copyright (c) Steve Scherf et al.
# Submitted via: ExactAudioCopy v0.99pb5
#
DISCID=bc0af30d
DTITLE=Ralph Stanley - A Distant Land to Roam
DYEAR=2006
DGENRE=Bluegrass
TTITLE0=God Gave Noah the Rainbow Sign
TTITLE1=Little Moses
TTITLE2=Worried Man Blues
TTITLE3=Longing for Home
TTITLE4=Motherless Children
TTITLE5=Storms Are on the Ocean
TTITLE6=Keep on the Firing Line
TTITLE7=Engine 143
TTITLE8=I'm Thinking Tonight of My Blue Eyes
TTITLE9=Poor Orphan Child
TTITLE10=On a Hill Lone and Grey
TTITLE11=Waves on the Sea
TTITLE12=Distant Land to Roam
EXTD=
EXTT0=
EXTT1=
EXTT2=
EXTT3=
EXTT4=
EXTT5=
EXTT6=
EXTT7=
EXTT8=
EXTT9=
EXTT10=
EXTT11=
EXTT12=
PLAYORDER=
